<?xml version="1.0" encoding="UTF-8" standalone="no"?>
<!-- Created with Inkscape (http://www.inkscape.org/) -->

<svg
   xmlns:dc="http://purl.org/dc/elements/1.1/"
   xmlns:cc="http://creativecommons.org/ns#"
   xmlns:rdf="http://www.w3.org/1999/02/22-rdf-syntax-ns#"
   xmlns:svg="http://www.w3.org/2000/svg"
   xmlns="http://www.w3.org/2000/svg"
   xmlns:sodipodi="http://sodipodi.sourceforge.net/DTD/sodipodi-0.dtd"
   xmlns:inkscape="http://www.inkscape.org/namespaces/inkscape"
   width="210mm"
   height="297mm"
   viewBox="0 0 210 297"
   version="1.1"
   id="svg8"
   inkscape:version="0.92.4 (5da689c313, 2019-01-14)"
   sodipodi:docname="logo.svg">
  <defs
     id="defs2" />
  <sodipodi:namedview
     id="base"
     pagecolor="#ffffff"
     bordercolor="#666666"
     borderopacity="1.0"
     inkscape:pageopacity="0.0"
     inkscape:pageshadow="2"
     inkscape:zoom="0.35"
     inkscape:cx="-314.28571"
     inkscape:cy="674.28571"
     inkscape:document-units="mm"
     inkscape:current-layer="layer1"
     showgrid="false"
     inkscape:window-width="1600"
     inkscape:window-height="837"
     inkscape:window-x="-8"
     inkscape:window-y="-8"
     inkscape:window-maximized="1" />
  <metadata
     id="metadata5">
    <rdf:RDF>
      <cc:Work
         rdf:about="">
        <dc:format>image/svg+xml</dc:format>
        <dc:type
           rdf:resource="http://purl.org/dc/dcmitype/StillImage" />
        <dc:title />
      </cc:Work>
    </rdf:RDF>
  </metadata>
  <g
     inkscape:label="Capa 1"
     inkscape:groupmode="layer"
     id="layer1">
    <flowRoot
       xml:space="preserve"
       id="flowRoot26"
       style="font-style:normal;font-weight:normal;font-size:40px;line-height:1.25;font-family:sans-serif;letter-spacing:0px;word-spacing:0px;fill:#000000;fill-opacity:1;stroke:none"
       transform="scale(0.26458333)"><flowRegion
         id="flowRegion28"><rect
           id="rect30"
           width="177.14285"
           height="151.42857"
           x="337.14285"
           y="785.37683" /></flowRegion><flowPara
         id="flowPara32"
         style="font-size:192.00000242px">I</flowPara></flowRoot>    <g
       id="g52"
       transform="translate(21.166667,32.505952)"
       style="fill:#f9f9f9">
      <text
         transform="scale(1.2433634,0.8042701)"
         id="text24"
         y="112.83707"
         x="30.947603"
         style="font-style:normal;font-weight:normal;font-size:13.51117516px;line-height:1.25;font-family:sans-serif;letter-spacing:0px;word-spacing:0px;fill:#f9f9f9;fill-opacity:1;stroke:none;stroke-width:0.3377794"
         xml:space="preserve"><tspan
           style="font-style:normal;font-variant:normal;font-weight:normal;font-stretch:normal;font-size:64.85364532px;font-family:'Viner Hand ITC';-inkscape-font-specification:'Viner Hand ITC';stroke-width:0.3377794;fill:#f9f9f9"
           y="112.83707"
           x="30.947603"
           id="tspan22"
           sodipodi:role="line">J</tspan></text>
      <text
         transform="scale(1.2549497,0.79684469)"
         id="text36"
         y="158.45981"
         x="31.444054"
         style="font-style:normal;font-weight:normal;font-size:177.09844971px;line-height:1.25;font-family:sans-serif;letter-spacing:0px;word-spacing:0px;fill:#f9f9f9;fill-opacity:1;stroke:none;stroke-width:0.92238772"
         xml:space="preserve"><tspan
           style="font-style:normal;font-variant:normal;font-weight:normal;font-stretch:normal;font-family:'Viner Hand ITC';-inkscape-font-specification:'Viner Hand ITC';stroke-width:0.92238772;fill:#f9f9f9"
           y="158.45981"
           x="31.444054"
           id="tspan34"
           sodipodi:role="line">I</tspan></text>
      <text
         transform="scale(0.9597068,1.0419849)"
         id="text40"
         y="99.078987"
         x="92.212357"
         style="font-style:normal;font-weight:normal;font-size:56.40206146px;line-height:1.25;font-family:sans-serif;letter-spacing:0px;word-spacing:0px;fill:#f9f9f9;fill-opacity:1;stroke:none;stroke-width:0.29376072"
         xml:space="preserve"><tspan
           style="font-style:normal;font-variant:normal;font-weight:normal;font-stretch:normal;font-family:'Viner Hand ITC';-inkscape-font-specification:'Viner Hand ITC';stroke-width:0.29376072;fill:#f9f9f9"
           y="99.078987"
           x="92.212357"
           id="tspan38"
           sodipodi:role="line">Z</tspan></text>
    </g>
    <path
       style="fill:#f9f9f9;stroke-width:2.85714293"
       d="m 246.11229,613.22323 c -2.13824,-1.41603 -6.31681,-1.93937 -9.28571,-1.16297 -4.17117,1.09077 -5.39589,-0.12515 -5.38868,-5.3502 0.008,-5.493 4.62049,-9.4014 24.58359,-20.82903 26.10363,-14.94269 46.39621,-21.64706 65.52077,-21.64706 17.33055,0 38.45774,-7.90291 38.45774,-14.38568 0,-2.90238 -1.11058,-5.96346 -2.46796,-6.80238 -2.83528,-1.75228 -1.93844,-26.15138 1.2583,-34.23326 1.17941,-2.98173 0.76213,-9.08332 -0.92728,-13.55908 -1.76615,-4.67907 -1.98337,-8.81035 -0.51108,-9.72027 1.40831,-0.87039 2.58025,-4.73309 2.6043,-8.58378 0.024,-3.8507 0.0645,-10.13857 0.0899,-13.97306 0.0263,-3.97362 3.08561,-9.36262 7.11393,-12.53131 6.03969,-4.75081 6.46397,-6.06062 2.9168,-9.00451 -3.6129,-2.99843 -3.53713,-4.38183 0.58448,-10.67221 4.45836,-6.80431 4.42384,-7.45508 -0.58976,-11.12112 -5.11267,-3.73848 -5.12204,-4.11839 -0.23485,-9.51868 4.92903,-5.44652 4.85443,-5.68402 -2.35346,-7.49308 -4.0941,-1.02756 -6.65626,-3.14258 -5.69369,-4.70005 0.96257,-1.55747 2.17412,-9.94251 2.69233,-18.63342 0.68033,-11.40988 2.57069,-17.31881 6.80155,-21.26046 3.22266,-3.00235 5.85937,-7.16392 5.85937,-9.24792 0,-2.08401 2.69594,-7.21644 5.99098,-11.40541 4.52598,-5.75384 5.21639,-8.54963 2.82335,-11.43306 -1.74219,-2.09922 -2.83099,-6.88099 -2.41955,-10.62615 0.72005,-6.55429 0.0962,-6.79202 -16.65213,-6.34557 -11.45272,0.30529 -21.20411,2.50261 -28.52911,6.42858 -14.60967,7.83031 -22.38704,7.53129 -28.0278,-1.0776 -9.13837,-13.94691 -4.81276,-22.81623 12.80085,-26.24712 5.35023,-1.04215 10.37055,-2.85469 11.15626,-4.02788 1.7638,-2.6336 29.0107,-12.54302 55.71429,-20.26271 14.6948,-4.2481 23.78943,-5.268 34.28571,-3.8449 7.85715,1.06528 18.78572,1.71375 24.28572,1.44106 5.5,-0.27269 26.71428,-0.77874 47.14286,-1.12456 36.84902,-0.62378 37.29882,-0.71229 56.85914,-11.18872 10.84397,-5.80799 20.84008,-10.55997 22.21357,-10.55997 1.37351,0 3.71937,3.21428 5.213,7.14285 1.62557,4.27558 4.97023,7.14286 8.33209,7.14286 3.08902,0 6.411,1.28571 7.3822,2.85714 0.9712,1.57143 0.45431,2.85715 -1.14866,2.85715 -1.60294,0 -5.21454,2.36591 -8.02574,5.25759 -2.81123,2.89168 -11.53989,6.91304 -19.39703,8.93636 -7.85715,2.02332 -25.85715,9.20896 -40,15.9681 -14.14286,6.75913 -35.12572,15.03331 -46.62857,18.38705 -16.12281,4.70072 -20.22947,6.92286 -17.92513,9.69943 1.73054,2.08517 1.9299,4.71597 0.47348,6.24802 -11.51036,12.10799 -34.49259,70.87699 -43.21352,110.50345 -2.05927,9.35698 -5.15969,16.42857 -7.20284,16.42857 -2.42934,0 -3.89653,6.22521 -4.54535,19.28571 -1.05636,21.2642 3.57392,73.43029 6.79915,76.60117 1.12362,1.10469 14.88162,2.16063 30.57334,2.34655 30.43954,0.36062 38.27397,3.26542 29.59409,10.97271 -7.75183,6.88323 -26.08086,16.50051 -31.58298,16.57169 -2.70221,0.0349 -8.12739,2.57777 -12.05596,5.65074 -3.92857,3.07297 -8.67651,5.6158 -10.55097,5.65074 -1.87446,0.0349 -7.66018,2.46526 -12.85714,5.40066 -5.73121,3.23717 -20.69075,6.60388 -38.02046,8.55663 -77.65191,8.75003 -106.32867,12.16203 -112.85714,13.42791 -3.92857,0.76177 -8.89233,0.22657 -11.03057,-1.18954 z"
       id="path54"
       inkscape:connector-curvature="0"
       transform="scale(0.26458333)" />
  </g>
</svg>
